<?xml version="1.0" standalone="no"?><!-- Generator: Gravit.io --><svg xmlns="http://www.w3.org/2000/svg" xmlns:xlink="http://www.w3.org/1999/xlink" style="isolation:isolate" viewBox="0 0 136 78" width="136" height="78"><defs><clipPath id="_clipPath_jQhyBQykFSVtzjOIbsp5rHqgCf0X2Jsi"><rect width="136" height="78"/></clipPath></defs><g clip-path="url(#_clipPath_jQhyBQykFSVtzjOIbsp5rHqgCf0X2Jsi)"><rect x="0" y="0" width="136" height="78" transform="matrix(1,0,0,1,0,0)" fill="none"/><path d=" M 0.145 55.994 L 21.469 55.994 L 21.469 52.1 L 0.145 52.1 L 0.145 55.994 Z " fill="rgb(255,255,255)"/><path d=" M 4.152 41.54 L 21.376 41.54 L 21.376 37.646 L 4.152 37.646 L 4.152 41.54 Z " fill="rgb(255,255,255)"/><path d=" M 10.084 48.767 L 30.052 48.767 L 30.052 44.873 L 10.084 44.873 L 10.084 48.767 Z " fill="rgb(255,255,255)"/><path d=" M 14.551 34.08 L 14.551 39.238 C 14.551 40.256 15.376 41.08 16.393 41.08 C 17.411 41.08 18.235 40.255 18.235 39.238 L 18.235 34.08 C 18.235 33.063 17.41 32.238 16.393 32.238 C 15.376 32.238 14.551 33.063 14.551 34.08 Z " fill="rgb(255,255,255)"/><path d=" M 115.438 61.643 C 113.219 61.643 111.414 63.448 111.414 65.667 C 111.414 67.886 113.219 69.691 115.438 69.691 C 117.657 69.691 119.462 67.886 119.462 65.667 C 119.462 63.448 117.657 61.643 115.438 61.643 Z " fill="rgb(255,255,255)"/><path d=" M 102.768 38.666 L 102.768 36.459 L 125.738 36.459 L 125.741 36.459 L 125.748 36.459 L 129.698 40.873 L 125.744 40.873 L 123.797 42.82 L 123.797 46.974 L 127.01 50.289 L 129.898 53.075 L 132.105 53.075 L 132.105 61.642 L 127.014 61.642 C 125.341 56.813 120.751 53.334 115.36 53.334 C 109.969 53.334 105.378 56.813 103.706 61.642 L 102.768 61.642 M 103.031 65.537 C 103.03 65.58 103.028 65.623 103.028 65.667 C 103.028 72.467 108.56 77.999 115.36 77.999 C 122.16 77.999 127.692 72.467 127.692 65.667 C 127.692 65.623 127.689 65.581 127.689 65.537 L 134.053 65.537 L 136 63.59 L 136 42.82 L 127.294 32.682 L 124.074 19.8 L 125.615 17.896 L 125.615 15.819 L 117.437 7.641 L 102.769 7.641 L 98.745 7.622 L 98.745 62.777 L 102.673 62.003 M 102.768 10.767 L 116.75 10.767 L 121.72 15.82 L 121.72 16.355 L 102.768 16.355 L 102.768 10.767 Z  M 102.768 32.565 L 102.768 19.844 L 120.07 19.844 L 123.25 32.565 L 102.768 32.565 Z  M 115.36 74.104 C 110.708 74.104 106.922 70.319 106.922 65.666 C 106.922 61.013 110.707 57.228 115.36 57.228 C 120.012 57.228 123.798 61.013 123.798 65.666 C 123.797 70.319 120.012 74.104 115.36 74.104 Z  M 132.105 49.18 L 129.898 49.18 L 127.691 46.973 L 127.691 44.766 L 132.104 44.766 L 132.104 49.18 L 132.105 49.18 Z " fill="rgb(255,255,255)"/><path d=" M 37.083 61.643 C 34.864 61.643 33.059 63.448 33.059 65.667 C 33.059 67.886 34.864 69.691 37.083 69.691 C 39.302 69.691 41.107 67.886 41.107 65.667 C 41.107 63.448 39.302 61.643 37.083 61.643 Z " fill="rgb(255,255,255)"/><path d=" M 37.073 53.359 C 30.269 53.365 24.757 58.885 24.763 65.689 C 24.769 72.493 30.289 78.005 37.093 77.999 C 43.897 77.993 49.408 72.473 49.403 65.669 C 49.398 58.865 43.877 53.353 37.073 53.359 Z  M 37.097 74.18 C 32.436 74.184 28.654 70.408 28.65 65.747 C 28.646 61.085 32.422 57.304 37.083 57.3 C 41.745 57.296 45.526 61.072 45.53 65.733 C 45.535 70.394 41.759 74.176 37.097 74.18 Z " fill="rgb(255,255,255)"/><rect x="94.461" y="62.005" width="9.122" height="3.663" transform="matrix(1,0,0,1,0,0)" fill="rgb(255,255,255)"/><path d=" M 79.944 12.607 L 56.558 12.607 C 51.665 12.607 47.699 16.574 47.699 21.467 L 47.699 44.852 C 47.699 49.745 51.665 53.712 56.558 53.712 L 79.944 53.712 C 84.836 53.712 88.803 49.746 88.803 44.852 L 88.803 21.466 C 88.803 16.573 84.836 12.607 79.944 12.607 Z  M 66.322 37.505 L 63.455 43.389 C 63.053 44.232 62.183 44.779 61.238 44.779 C 60.893 44.779 60.533 44.699 60.168 44.54 C 59.559 44.243 59.113 43.736 58.899 43.106 C 58.687 42.482 58.73 41.817 59.02 41.232 L 61.874 35.334 C 62.295 34.475 63.145 33.942 64.092 33.942 C 64.472 33.942 64.838 34.029 65.181 34.2 C 65.773 34.486 66.22 34.987 66.436 35.609 C 66.652 36.234 66.612 36.907 66.322 37.505 Z  M 66.199 28.868 C 65.625 29.437 64.828 29.763 64.01 29.763 C 63.195 29.763 62.399 29.437 61.826 28.87 C 61.246 28.286 60.914 27.486 60.914 26.673 C 60.914 25.873 61.246 25.078 61.823 24.493 C 62.373 23.936 63.172 23.617 64.014 23.617 C 64.856 23.617 65.653 23.936 66.2 24.494 C 66.774 25.074 67.104 25.869 67.104 26.673 C 67.104 27.489 66.774 28.289 66.199 28.868 Z  M 77.735 37.045 C 77.205 39.517 76.229 41.801 74.834 43.833 C 74.38 44.501 73.625 44.902 72.818 44.902 C 72.329 44.902 71.855 44.752 71.447 44.469 C 70.912 44.109 70.548 43.56 70.426 42.926 C 70.302 42.284 70.439 41.629 70.811 41.082 C 71.84 39.573 72.564 37.872 72.967 36.026 C 73.402 33.999 73.402 31.859 72.966 29.84 C 72.566 27.999 71.84 26.294 70.81 24.772 C 70.441 24.235 70.304 23.585 70.426 22.946 C 70.548 22.306 70.917 21.751 71.464 21.384 C 71.866 21.11 72.338 20.963 72.826 20.963 C 73.636 20.963 74.388 21.364 74.837 22.037 C 76.235 24.075 77.212 26.359 77.736 28.823 C 78.315 31.508 78.315 34.351 77.735 37.045 Z " fill="rgb(255,255,255)"/><path d=" M 14.551 52.514 L 14.551 58.355 L 21.875 65.679 L 24.994 65.679 C 24.929 65.347 24.892 65.009 24.892 64.665 C 24.892 63.735 25.137 62.844 25.584 62.017 L 21.874 62.017 L 18.212 58.355 L 18.212 52.513" fill="rgb(255,255,255)"/><path d=" M 34.691 0.377 L 33.396 0.377 L 15.087 18.618 L 14.551 19.913 L 14.551 38.528 L 14.551 39.257 L 18.213 39.257 L 18.213 38.407 L 18.213 20.671 L 35.067 3.965 L 98.21 3.965 L 98.21 62.017 L 47.508 62.017 L 47.491 62.017 C 47.938 62.844 48.183 65.679 48.183 65.679 L 55.545 65.679 L 102.576 65.679 C 102.576 61.563 102.436 63.688 102.436 58.355 L 101.871 0.377 L 34.691 0.377 Z " fill="rgb(255,255,255)"/></g></svg>