<?xml version="1.0" standalone="no"?><!-- Generator: Gravit.io --><svg xmlns="http://www.w3.org/2000/svg" xmlns:xlink="http://www.w3.org/1999/xlink" style="isolation:isolate" viewBox="0 0 88 79" width="88" height="79"><defs><clipPath id="_clipPath_3sxVpHUFRdUdzVPn2hJJjgL7OUaywc0g"><rect width="88" height="79"/></clipPath></defs><g clip-path="url(#_clipPath_3sxVpHUFRdUdzVPn2hJJjgL7OUaywc0g)"><rect x="0" y="0" width="88" height="79" transform="matrix(1,0,0,1,0,0)" fill="none"/><rect x="0" y="0" width="88" height="79" transform="matrix(1,0,0,1,0,0)" fill="none"/><g><g><path d=" M 75.588 79 L 14.564 79 L 14.564 37.998 L 75.588 37.998 L 75.588 79 L 75.588 79 L 75.588 79 Z  M 18.564 75 L 71.588 75 L 71.588 41.998 L 18.564 41.998 L 18.564 75 L 18.564 75 L 18.564 75 L 18.564 75 Z " fill="rgb(255,255,255)"/><path d=" M 88.735 41.943 L 0 41.943 L 21.925 0.388 L 67.32 0.388 L 88.735 41.943 L 88.735 41.943 L 88.735 41.943 Z  M 6.633 37.943 L 82.173 37.943 L 64.881 4.388 L 24.337 4.388 L 6.633 37.943 L 6.633 37.943 L 6.633 37.943 Z " fill="rgb(255,255,255)"/><rect x="28.454" y="1.93" width="4" height="37.803" transform="matrix(0.969,0.247,-0.247,0.969,6.089,-6.877)" fill="rgb(255,255,255)"/><rect x="40.153" y="18.816" width="37.803" height="4" transform="matrix(0.247,0.969,-0.969,0.247,64.639,-41.55)" fill="rgb(255,255,255)"/><rect x="42.788" y="3.425" width="4" height="35.251" transform="matrix(1,0,0,1,0,0)" fill="rgb(255,255,255)"/><path d=" M 50.131 49.613 L 40.021 49.613 C 37.906 49.613 36.191 51.328 36.191 53.444 L 36.191 63.554 C 36.191 65.669 37.906 67.384 40.021 67.384 L 50.132 67.384 C 52.247 67.384 53.962 65.669 53.962 63.554 L 53.962 53.444 C 53.962 51.328 52.247 49.613 50.131 49.613 Z  M 44.242 60.378 L 43.002 62.922 C 42.828 63.287 42.452 63.523 42.044 63.523 C 41.895 63.523 41.739 63.488 41.581 63.42 C 41.318 63.292 41.125 63.072 41.033 62.8 C 40.941 62.53 40.96 62.243 41.085 61.99 L 42.319 59.44 C 42.501 59.069 42.868 58.838 43.278 58.838 C 43.442 58.838 43.601 58.876 43.749 58.95 C 44.005 59.074 44.198 59.29 44.291 59.559 C 44.385 59.829 44.368 60.119 44.242 60.378 Z  M 44.189 56.644 C 43.941 56.89 43.596 57.031 43.242 57.031 C 42.89 57.031 42.545 56.89 42.298 56.645 C 42.047 56.392 41.904 56.047 41.904 55.695 C 41.904 55.349 42.047 55.005 42.297 54.753 C 42.535 54.512 42.88 54.374 43.244 54.374 C 43.608 54.374 43.953 54.512 44.189 54.753 C 44.437 55.004 44.58 55.347 44.58 55.695 C 44.58 56.048 44.438 56.393 44.189 56.644 Z  M 49.177 60.179 C 48.948 61.248 48.526 62.235 47.923 63.114 C 47.727 63.403 47.4 63.576 47.051 63.576 C 46.84 63.576 46.635 63.511 46.458 63.389 C 46.227 63.234 46.069 62.996 46.017 62.722 C 45.963 62.444 46.022 62.161 46.183 61.925 C 46.628 61.273 46.941 60.537 47.115 59.739 C 47.303 58.863 47.303 57.937 47.115 57.065 C 46.942 56.269 46.628 55.532 46.183 54.874 C 46.023 54.642 45.964 54.361 46.017 54.085 C 46.07 53.808 46.229 53.568 46.466 53.41 C 46.64 53.291 46.844 53.228 47.055 53.228 C 47.405 53.228 47.73 53.402 47.925 53.692 C 48.53 54.573 48.952 55.561 49.178 56.626 C 49.427 57.785 49.427 59.015 49.177 60.179 Z " fill="rgb(255,255,255)"/></g></g></g></svg>