<?xml version="1.0" standalone="no"?>
<!DOCTYPE svg PUBLIC "-//W3C//DTD SVG 20010904//EN"
 "http://www.w3.org/TR/2001/REC-SVG-20010904/DTD/svg10.dtd">
<svg version="1.0" xmlns="http://www.w3.org/2000/svg"
 width="260.000000pt" height="260.000000pt" viewBox="0 0 260.000000 260.000000"
 preserveAspectRatio="xMidYMid meet">
<metadata>
Created by potrace 1.11, written by Peter Selinger 2001-2013
</metadata>
<g transform="translate(0.000000,260.000000) scale(0.100000,-0.100000)"
fill="#000000" stroke="none">
<path d="M440 2584 c-201 -43 -372 -211 -425 -419 -13 -51 -15 -176 -15 -862
0 -540 4 -819 11 -855 20 -96 82 -210 155 -282 72 -73 186 -135 282 -155 36
-7 315 -11 855 -11 880 0 852 -2 986 60 45 22 85 52 140 108 88 89 123 149
151 258 19 74 20 113 20 868 0 871 0 867 -62 994 -45 93 -160 208 -251 251
-128 61 -123 61 -992 60 -640 0 -802 -3 -855 -15z m1203 -528 c41 -17 75 -55
119 -131 219 -382 215 -874 -12 -1242 -57 -93 -96 -123 -159 -123 -130 0 -199
141 -122 248 38 54 100 196 123 282 17 66 22 113 22 215 1 194 -38 336 -135
496 -32 54 -42 81 -42 114 0 58 29 105 83 133 51 26 78 27 123 8z m-527 -175
c93 -42 136 -165 91 -256 -37 -77 -133 -123 -215 -104 -99 22 -157 100 -150
200 10 139 146 218 274 160z m3 -658 c14 -11 37 -35 49 -54 41 -59 30 -104
-89 -344 -85 -171 -110 -214 -138 -232 -44 -30 -122 -31 -168 -3 -38 23 -73
86 -73 132 0 35 188 437 224 477 47 53 140 64 195 24z"/>
</g>
</svg>
