<?xml version="1.0" standalone="no"?><!-- Generator: Gravit.io --><svg xmlns="http://www.w3.org/2000/svg" xmlns:xlink="http://www.w3.org/1999/xlink" style="isolation:isolate" viewBox="0 0 1000 1000" width="1000" height="1000"><defs><clipPath id="_clipPath_NeCm8ZYx4QWR9gjGqJQV6eGfogMQwKG2"><rect width="1000" height="1000"/></clipPath></defs><g clip-path="url(#_clipPath_NeCm8ZYx4QWR9gjGqJQV6eGfogMQwKG2)"><path d=" M 766.9 789.8 C 786.4 789.8 802.3 783.2 814.9 770 C 827.4 756.8 833.7 741.2 833.7 723.1 C 833.7 705 827.4 689.4 814.9 676.2 C 802.4 663 786.4 656.4 766.9 656.4 C 747.4 656.4 731.5 663 718.9 676.2 C 706.4 689.4 700.1 705 700.1 723.1 C 700.1 741.2 706.4 756.8 718.9 770 C 731.4 783.2 747.4 789.8 766.9 789.8 L 766.9 789.8 Z  M 833.6 389.5 L 723.1 389.5 L 723.1 500 L 921.2 500 L 833.6 389.5 L 833.6 389.5 L 833.6 389.5 Z  M 233.1 789.8 C 252.6 789.8 268.5 783.2 281.1 770 C 293.6 756.8 299.9 741.2 299.9 723.1 C 299.9 705 293.6 689.4 281.1 676.2 C 268.6 663 252.6 656.4 233.1 656.4 C 213.6 656.4 197.7 663 185.1 676.2 C 172.6 689.4 166.3 705 166.3 723.1 C 166.3 741.2 172.6 756.8 185.1 770 C 197.7 783.2 213.6 789.8 233.1 789.8 L 233.1 789.8 Z  M 856.6 322.8 L 990 500 L 990 723.1 L 900.3 723.1 C 900.3 759.2 887.1 790.5 860.7 816.9 C 834.3 843.3 803 856.5 766.9 856.5 C 730.8 856.5 699.5 843.3 673.1 816.9 C 646.7 790.5 633.5 759.2 633.5 723.1 L 366.6 723.1 C 366.6 759.2 353.4 790.5 327 816.9 C 300.6 843.3 269.3 856.5 233.2 856.5 C 197.1 856.5 165.8 843.3 139.4 816.9 C 113 790.5 99.8 759.2 99.8 723.1 L 10 723.1 L 10 233.1 C 10 209.5 19 188.6 37.1 170.5 C 55.2 152.4 76 143.4 99.7 143.4 L 723.1 143.4 L 723.1 322.7 L 856.6 322.7 L 856.6 322.8 L 856.6 322.8 Z  M 422.398 224.826 Q 443.338 224.386 451.898 236.326 Q 502.211 298.013 499.898 412.326 Q 490.687 497.614 447.398 548.826 Q 439.191 557.118 421.398 555.826 Q 408.356 552.868 400.898 544.326 Q 391.545 536.179 392.898 517.326 Q 393.953 507.88 399.398 502.826 L 414.398 475.826 Q 435.789 436.716 432.898 373.326 Q 428.726 330.998 412.398 300.826 L 400.398 279.826 C 398.528 278.094 397.009 276.006 395.873 273.726 C 387.212 256.343 396.256 234.024 414.163 227.09 C 416.822 226.061 419.596 225.329 422.398 224.826 L 422.398 224.826 L 422.398 224.826 Z  M 297.398 261.826 C 310.174 261.118 324.619 262.71 334.149 272.2 C 339.965 277.992 344.995 285.668 346.503 293.784 C 351.147 318.786 335.544 342.85 310.064 346.241 C 304.564 346.973 300.124 346.792 294.718 345.506 C 273.435 340.445 257.013 318.437 262.347 296.087 C 265.824 281.518 274.623 269.623 288.918 264.22 C 291.669 263.181 294.517 262.4 297.398 261.826 L 297.398 261.826 L 297.398 261.826 Z  M 299.398 404.826 Q 323.311 402.913 331.898 416.326 Q 341.073 425.151 339.898 444.326 Q 327.198 481.126 307.898 511.326 Q 301.765 534.193 286.398 547.826 Q 278.109 556.036 259.398 553.826 Q 247.011 550.713 239.898 542.326 Q 231.412 533.812 231.898 516.326 Q 243.152 476.08 264.398 445.826 Q 270.887 424.314 285.398 410.826 L 299.398 404.826 L 299.398 404.826 Z " fill-rule="evenodd" fill="rgb(255,255,255)"/></g></svg>